#N canvas 99 142 1201 715 10;
#N canvas 0 22 1350 929 noisemusic1 0;
#N canvas 31 66 1422 852 feedbacke 0;
#X obj 416 22 inlet;
#X floatatom 416 51 5 0 0 0 carrier_freq - -;
#X obj 416 104 + 10;
#X floatatom 416 132 5 0 0 0 - - -;
#X obj 416 157 sig~;
#X obj 416 340 *~;
#X obj 416 368 *~;
#X obj 416 396 +~;
#X obj 580 640 clip~ -1 1;
#X obj 580 716 outlet~;
#X obj 477 22 inlet;
#X floatatom 477 51 5 0 0 1 feedback_index - -;
#X floatatom 477 132 5 0 0 0 - - -;
#X obj 477 157 sig~;
#X obj 821 22 inlet;
#X floatatom 821 51 5 0 0 0 mod_freq - -;
#X floatatom 821 132 5 0 0 0 - - -;
#X obj 821 157 sig~;
#X obj 890 22 inlet;
#X floatatom 890 51 5 0 0 1 mod_index - -;
#X floatatom 890 132 5 0 0 0 - - -;
#X obj 890 157 sig~;
#X obj 584 138 delread~ fb_del 2;
#X obj 330 699 delwrite~ fb_del 2;
#X obj 416 257 +~;
#X obj 821 104 + 60;
#X obj 455 226 *~;
#X obj 477 104 + 0.1;
#X obj 890 103 + 10;
#X obj 890 76 * 10;
#X obj 821 76 * 1000;
#X obj 477 76 * 50;
#X obj 416 300 osc~;
#X obj 416 76 * 1300;
#X obj 428 486 osc~;
#X connect 0 0 1 0;
#X connect 1 0 33 0;
#X connect 2 0 3 0;
#X connect 3 0 4 0;
#X connect 4 0 24 0;
#X connect 5 0 6 0;
#X connect 6 0 7 0;
#X connect 7 0 34 0;
#X connect 8 0 9 0;
#X connect 8 0 23 0;
#X connect 10 0 11 0;
#X connect 11 0 31 0;
#X connect 12 0 13 0;
#X connect 13 0 26 0;
#X connect 14 0 15 0;
#X connect 15 0 30 0;
#X connect 16 0 17 0;
#X connect 17 0 6 1;
#X connect 17 0 7 1;
#X connect 18 0 19 0;
#X connect 19 0 29 0;
#X connect 20 0 21 0;
#X connect 21 0 5 1;
#X connect 22 0 26 1;
#X connect 24 0 32 0;
#X connect 25 0 16 0;
#X connect 26 0 24 1;
#X connect 27 0 12 0;
#X connect 28 0 20 0;
#X connect 29 0 28 0;
#X connect 30 0 25 0;
#X connect 31 0 27 0;
#X connect 32 0 5 0;
#X connect 33 0 2 0;
#X connect 34 0 8 0;
#X coords 0 852 1 851 250 180 0;
#X restore 103 324 pd feedbacke;
#X obj 480 820 dac~;
#X obj 483 455 *~;
#N canvas 66 74 1275 849 feedbacke_mod 0;
#X obj 416 19 inlet;
#X floatatom 416 48 5 0 0 0 carrier_freq - -;
#X obj 416 101 + 10;
#X floatatom 416 129 5 0 0 0 - - -;
#X obj 416 154 sig~;
#X obj 416 337 *~;
#X obj 416 365 *~;
#X obj 416 393 +~;
#X obj 580 640 clip~ -1 1;
#X obj 580 713 outlet~;
#X obj 477 19 inlet;
#X floatatom 477 48 5 0 0 1 feedback_index - -;
#X floatatom 477 129 5 0 0 0 - - -;
#X obj 477 154 sig~;
#X obj 821 19 inlet;
#X floatatom 821 48 5 0 0 0 mod_freq - -;
#X floatatom 821 129 5 0 0 0 - - -;
#X obj 821 154 sig~;
#X obj 890 19 inlet;
#X floatatom 890 48 5 0 0 1 mod_index - -;
#X floatatom 890 129 5 0 0 0 - - -;
#X obj 890 154 sig~;
#X obj 416 254 +~;
#X obj 821 101 + 60;
#X obj 455 223 *~;
#X obj 477 101 + 0.1;
#X obj 890 100 + 10;
#X obj 890 73 * 10;
#X obj 416 73 * 300;
#X obj 821 73 * 1000;
#X obj 477 73 * 50;
#X obj 416 297 osc~;
#X obj 584 135 delread~ fb_delly 2;
#X obj 330 696 delwrite~ fb_delly 2;
#X obj 453 467 osc~;
#X connect 0 0 1 0;
#X connect 1 0 28 0;
#X connect 2 0 3 0;
#X connect 3 0 4 0;
#X connect 4 0 22 0;
#X connect 5 0 6 0;
#X connect 6 0 7 0;
#X connect 7 0 34 0;
#X connect 8 0 9 0;
#X connect 8 0 33 0;
#X connect 10 0 11 0;
#X connect 11 0 30 0;
#X connect 12 0 13 0;
#X connect 13 0 24 0;
#X connect 14 0 15 0;
#X connect 15 0 29 0;
#X connect 16 0 17 0;
#X connect 17 0 6 1;
#X connect 17 0 7 1;
#X connect 18 0 19 0;
#X connect 19 0 27 0;
#X connect 20 0 21 0;
#X connect 21 0 5 1;
#X connect 22 0 31 0;
#X connect 23 0 16 0;
#X connect 24 0 22 1;
#X connect 25 0 12 0;
#X connect 26 0 20 0;
#X connect 27 0 26 0;
#X connect 28 0 2 0;
#X connect 29 0 23 0;
#X connect 30 0 25 0;
#X connect 31 0 5 0;
#X connect 32 0 24 1;
#X connect 34 0 8 0;
#X coords 0 849 1 848 250 180 0;
#X restore 674 324 pd feedbacke_mod;
#X obj 480 784 clip~ -1 1;
#X obj 480 749 hip~ 1;
#X floatatom 103 275 5 0 0 0 - - -;
#X obj 103 247 line;
#X obj 103 219 pack 1 300;
#X obj 103 171 r feedbake_1;
#X obj 106 199 hsl 128 15 0 1 0 0 empty empty empty -2 -8 0 10 -262144
-1 -1 0 1;
#X floatatom 246 275 5 0 0 0 - - -;
#X obj 246 247 line;
#X obj 246 219 pack 1 300;
#X obj 249 199 hsl 128 15 0 1 0 0 empty empty empty -2 -8 0 10 -262144
-1 -1 0 1;
#X floatatom 388 275 5 0 0 0 - - -;
#X obj 388 247 line;
#X obj 388 219 pack 1 300;
#X obj 391 199 hsl 128 15 0 1 0 0 empty empty empty -2 -8 0 10 -262144
-1 -1 0 1;
#X floatatom 531 275 5 0 0 0 - - -;
#X obj 531 247 line;
#X obj 531 219 pack 1 300;
#X obj 534 199 hsl 128 15 0 1 0 0 empty empty empty -2 -8 0 10 -262144
-1 -1 0 1;
#X floatatom 674 275 5 0 0 0 - - -;
#X obj 674 247 line;
#X obj 674 219 pack 1 300;
#X obj 677 199 hsl 128 15 0 1 0 0 empty empty empty -2 -8 0 10 -262144
-1 -1 0 1;
#X floatatom 817 275 5 0 0 0 - - -;
#X obj 817 247 line;
#X obj 817 219 pack 1 300;
#X obj 820 199 hsl 128 15 0 1 0 0 empty empty empty -2 -8 0 10 -262144
-1 -1 0 1;
#X floatatom 959 275 5 0 0 0 - - -;
#X obj 959 247 line;
#X obj 959 219 pack 1 300;
#X obj 962 199 hsl 128 15 0 1 0 0 empty empty empty -2 -8 0 10 -262144
-1 -1 0 1;
#X floatatom 1102 275 5 0 0 0 - - -;
#X obj 1102 247 line;
#X obj 1102 219 pack 1 300;
#X obj 1105 199 hsl 128 15 0 1 0 0 empty empty empty -2 -8 0 10 -262144
-1 -1 0 1;
#X obj 246 171 r feedbake_2;
#X obj 388 171 r feedbake_3;
#X obj 531 171 r feedbake_4;
#X obj 674 171 r feedbake_5;
#X obj 817 171 r feedbake_6;
#X obj 959 171 r feedbake_7;
#X obj 1102 171 r feedbake_8;
#X obj 483 535 *~ 1;
#X obj 861 370 r feedbake_hold;
#X obj 966 632 line;
#X obj 1007 544 pack 1 50;
#X obj 861 418 select 1;
#X msg 826 527 0;
#X obj 1007 470 select 1;
#X msg 1007 498 1;
#X msg 1076 498 0;
#X floatatom 1007 418 5 0 0 0 - - -;
#X obj 966 603 spigot;
#X obj 784 462 t b b;
#X msg 784 527 1;
#X obj 884 462 t b b;
#X msg 884 527 0;
#X msg 926 527 1;
#X obj 551 679 +~;
#X obj 45 641 *~ 0.7;
#X floatatom 45 559 5 0 0 0 - - -;
#X obj 45 531 line;
#X obj 45 503 pack 1 300;
#X obj 48 454 hsl 128 15 0 1 0 0 empty empty empty -2 -8 0 10 -262144
-1 -1 0 1;
#X floatatom 188 814 5 0 0 0 - - -;
#X obj 188 786 line;
#X obj 188 758 pack 1 300;
#X obj 191 695 hsl 128 15 0 1 0 0 empty empty empty -2 -8 0 10 -262144
-1 -1 0 1;
#X obj 45 426 r feedbake_osc1;
#X obj 188 720 clip 0 0.9;
#X obj 45 584 delread~ FB02-del 160;
#X obj 581 720 delwrite~ FB02-del 2000;
#X obj 45 474 * 500;
#X obj 1007 370 r pad1OFF;
#X obj 1148 370 r pad2OFF;
#X obj 1148 398 r pad3OFF;
#X obj 1148 426 r pad4OFF;
#X obj 188 667 r feedbake_osc2;
#X connect 0 0 2 0;
#X connect 2 0 46 0;
#X connect 3 0 2 1;
#X connect 4 0 1 0;
#X connect 4 0 1 1;
#X connect 5 0 4 0;
#X connect 6 0 0 0;
#X connect 7 0 6 0;
#X connect 8 0 7 0;
#X connect 9 0 10 0;
#X connect 10 0 8 0;
#X connect 11 0 0 1;
#X connect 12 0 11 0;
#X connect 13 0 12 0;
#X connect 14 0 13 0;
#X connect 15 0 0 2;
#X connect 16 0 15 0;
#X connect 17 0 16 0;
#X connect 18 0 17 0;
#X connect 19 0 0 3;
#X connect 20 0 19 0;
#X connect 21 0 20 0;
#X connect 22 0 21 0;
#X connect 23 0 3 0;
#X connect 24 0 23 0;
#X connect 25 0 24 0;
#X connect 26 0 25 0;
#X connect 27 0 3 1;
#X connect 28 0 27 0;
#X connect 29 0 28 0;
#X connect 30 0 29 0;
#X connect 31 0 3 2;
#X connect 32 0 31 0;
#X connect 33 0 32 0;
#X connect 34 0 33 0;
#X connect 35 0 3 3;
#X connect 36 0 35 0;
#X connect 37 0 36 0;
#X connect 38 0 37 0;
#X connect 39 0 14 0;
#X connect 40 0 18 0;
#X connect 41 0 22 0;
#X connect 42 0 26 0;
#X connect 43 0 30 0;
#X connect 44 0 34 0;
#X connect 45 0 38 0;
#X connect 46 0 62 0;
#X connect 47 0 50 0;
#X connect 48 0 46 1;
#X connect 49 0 56 0;
#X connect 50 0 57 0;
#X connect 50 1 59 0;
#X connect 51 0 56 1;
#X connect 52 0 53 0;
#X connect 52 1 54 0;
#X connect 53 0 49 0;
#X connect 54 0 49 0;
#X connect 55 0 52 0;
#X connect 56 0 48 0;
#X connect 57 0 58 0;
#X connect 57 1 51 0;
#X connect 58 0 46 1;
#X connect 59 0 60 0;
#X connect 59 1 61 0;
#X connect 60 0 46 1;
#X connect 61 0 56 1;
#X connect 62 0 75 0;
#X connect 62 0 5 0;
#X connect 63 0 62 1;
#X connect 64 0 74 0;
#X connect 65 0 64 0;
#X connect 66 0 65 0;
#X connect 67 0 76 0;
#X connect 68 0 63 1;
#X connect 69 0 68 0;
#X connect 70 0 69 0;
#X connect 71 0 73 0;
#X connect 72 0 67 0;
#X connect 73 0 70 0;
#X connect 74 0 63 0;
#X connect 76 0 66 0;
#X connect 77 0 55 0;
#X connect 78 0 55 0;
#X connect 79 0 55 0;
#X connect 80 0 55 0;
#X connect 81 0 71 0;
#X restore 97 78 pd noisemusic1;
